<svg width="20" height="16" viewBox="0 0 20 16" fill="none" xmlns="http://www.w3.org/2000/svg">
<path d="M4.44444 2.22222V0H20V2.22222H4.44444ZM4.44444 6.66667V4.44444H20V6.66667H4.44444ZM4.44444 11.1111V8.88889H20V11.1111H4.44444ZM1.11111 2.22222C0.796296 2.22222 0.532407 2.11574 0.319444 1.90278C0.106481 1.68981 0 1.42593 0 1.11111C0 0.796296 0.106481 0.532407 0.319444 0.319444C0.532407 0.106481 0.796296 0 1.11111 0C1.42593 0 1.68981 0.106481 1.90278 0.319444C2.11574 0.532407 2.22222 0.796296 2.22222 1.11111C2.22222 1.42593 2.11574 1.68981 1.90278 1.90278C1.68981 2.11574 1.42593 2.22222 1.11111 2.22222ZM1.11111 6.66667C0.796296 6.66667 0.532407 6.56018 0.319444 6.34722C0.106481 6.13426 0 5.87037 0 5.55556C0 5.24074 0.106481 4.97685 0.319444 4.76389C0.532407 4.55093 0.796296 4.44444 1.11111 4.44444C1.42593 4.44444 1.68981 4.55093 1.90278 4.76389C2.11574 4.97685 2.22222 5.24074 2.22222 5.55556C2.22222 5.87037 2.11574 6.13426 1.90278 6.34722C1.68981 6.56018 1.42593 6.66667 1.11111 6.66667ZM1.11111 11.1111C0.796296 11.1111 0.532407 11.0046 0.319444 10.7917C0.106481 10.5787 0 10.3148 0 10C0 9.68518 0.106481 9.4213 0.319444 9.20833C0.532407 8.99537 0.796296 8.88889 1.11111 8.88889C1.42593 8.88889 1.68981 8.99537 1.90278 9.20833C2.11574 9.4213 2.22222 9.68518 2.22222 10C2.22222 10.3148 2.11574 10.5787 1.90278 10.7917C1.68981 11.0046 1.42593 11.1111 1.11111 11.1111Z" fill="#6B8E23"/>
<path d="M4.44444 6.72222V4.5H20V6.72222H4.44444ZM4.44444 11.1667V8.94444H20V11.1667H4.44444ZM4.44444 15.6111V13.3889H20V15.6111H4.44444ZM1.11111 6.72222C0.796296 6.72222 0.532407 6.61574 0.319444 6.40278C0.106481 6.18981 0 5.92593 0 5.61111C0 5.2963 0.106481 5.03241 0.319444 4.81944C0.532407 4.60648 0.796296 4.5 1.11111 4.5C1.42593 4.5 1.68981 4.60648 1.90278 4.81944C2.11574 5.03241 2.22222 5.2963 2.22222 5.61111C2.22222 5.92593 2.11574 6.18981 1.90278 6.40278C1.68981 6.61574 1.42593 6.72222 1.11111 6.72222ZM1.11111 11.1667C0.796296 11.1667 0.532407 11.0602 0.319444 10.8472C0.106481 10.6343 0 10.3704 0 10.0556C0 9.74074 0.106481 9.47685 0.319444 9.26389C0.532407 9.05093 0.796296 8.94444 1.11111 8.94444C1.42593 8.94444 1.68981 9.05093 1.90278 9.26389C2.11574 9.47685 2.22222 9.74074 2.22222 10.0556C2.22222 10.3704 2.11574 10.6343 1.90278 10.8472C1.68981 11.0602 1.42593 11.1667 1.11111 11.1667ZM1.11111 15.6111C0.796296 15.6111 0.532407 15.5046 0.319444 15.2917C0.106481 15.0787 0 14.8148 0 14.5C0 14.1852 0.106481 13.9213 0.319444 13.7083C0.532407 13.4954 0.796296 13.3889 1.11111 13.3889C1.42593 13.3889 1.68981 13.4954 1.90278 13.7083C2.11574 13.9213 2.22222 14.1852 2.22222 14.5C2.22222 14.8148 2.11574 15.0787 1.90278 15.2917C1.68981 15.5046 1.42593 15.6111 1.11111 15.6111Z" fill="#6B8E23"/>
</svg>
