<svg width="16" height="16" viewBox="0 0 16 16" fill="none" xmlns="http://www.w3.org/2000/svg">
<path d="M15.5625 9.6875L9.70833 15.5625C9.55556 15.7153 9.38889 15.8264 9.20833 15.8958C9.02778 15.9653 8.84028 16 8.64583 16C8.45139 16 8.26389 15.9653 8.08333 15.8958C7.90278 15.8264 7.73611 15.7153 7.58333 15.5625L0.43125 8.41042C0.282639 8.26181 0.173611 8.09799 0.104167 7.91896C0.0347222 7.73993 0 7.55167 0 7.35417V1.5C0 1.0875 0.146875 0.734376 0.440625 0.440626C0.734375 0.146876 1.0875 0 1.5 0H7.35417C7.54736 0 7.73458 0.0347222 7.91583 0.104167C8.09694 0.173611 8.26201 0.282639 8.41104 0.43125L15.5625 7.58333C15.7153 7.73611 15.8264 7.89931 15.8958 8.07292C15.9653 8.24653 16 8.43056 16 8.625C16 8.81944 15.9651 9.00757 15.8954 9.18937C15.8257 9.37104 15.7147 9.53708 15.5625 9.6875ZM8.64583 14.5L14.5 8.64583L7.35417 1.5H1.5V7.35417L8.64583 14.5ZM3.5 4.75C3.84722 4.75 4.14236 4.62847 4.38542 4.38542C4.62847 4.14236 4.75 3.84722 4.75 3.5C4.75 3.15278 4.62847 2.85764 4.38542 2.61458C4.14236 2.37153 3.84722 2.25 3.5 2.25C3.15278 2.25 2.85764 2.37153 2.61458 2.61458C2.37153 2.85764 2.25 3.15278 2.25 3.5C2.25 3.84722 2.37153 4.14236 2.61458 4.38542C2.85764 4.62847 3.15278 4.75 3.5 4.75Z" fill="#5F6368"/>
</svg>
