<svg width="16" height="16" viewBox="0 0 16 16" fill="none" xmlns="http://www.w3.org/2000/svg">
<path d="M3.2001 9.6C3.2001 10.2815 3.34454 10.9296 3.63343 11.5444C3.92232 12.1593 4.32602 12.7037 4.84454 13.1778C4.82973 13.1037 4.81862 13.0296 4.81121 12.9556C4.8038 12.8815 4.8001 12.8074 4.8001 12.7333C4.8001 12.3333 4.87417 11.9593 5.02232 11.6111C5.17047 11.263 5.37047 10.9481 5.62232 10.6667L8.0001 8L10.3779 10.6667C10.6297 10.963 10.8297 11.2852 10.9779 11.6333C11.126 11.9815 11.2001 12.3481 11.2001 12.7333C11.2001 12.8074 11.1964 12.8852 11.189 12.9667C11.1816 13.0481 11.1705 13.1259 11.1557 13.2C11.6742 12.7704 12.0779 12.2407 12.3668 11.6111C12.6557 10.9815 12.8001 10.3111 12.8001 9.6C12.8001 8.84444 12.6705 8.1 12.4112 7.36667C12.1519 6.63333 11.7779 5.95556 11.289 5.33333C11.0371 5.4963 10.7742 5.62222 10.5001 5.71111C10.226 5.8 9.92602 5.84444 9.6001 5.84444C8.82973 5.84444 8.15195 5.60741 7.56676 5.13333C6.98158 4.65926 6.61491 4.04444 6.46676 3.28889C5.93343 3.77778 5.46676 4.27778 5.06676 4.78889C4.66676 5.3 4.32602 5.82222 4.04454 6.35556C3.76306 6.88889 3.55195 7.42963 3.41121 7.97778C3.27047 8.52593 3.2001 9.06667 3.2001 9.6ZM8.0001 10.4L6.82232 11.7333C6.68899 11.8963 6.58528 12.063 6.51121 12.2333C6.43713 12.4037 6.4001 12.5926 6.4001 12.8C6.4001 13.2444 6.55565 13.6222 6.86676 13.9333C7.17788 14.2444 7.55565 14.4 8.0001 14.4C8.44454 14.4 8.82232 14.2444 9.13343 13.9333C9.44454 13.6222 9.6001 13.2444 9.6001 12.8C9.6001 12.5926 9.56306 12.4 9.48899 12.2222C9.41491 12.0444 9.31121 11.8815 9.17788 11.7333L8.0001 10.4ZM8.0001 0V2.64444C8.0001 3.08889 8.15565 3.46667 8.46676 3.77778C8.77788 4.08889 9.15565 4.24444 9.6001 4.24444C9.85195 4.24444 10.0853 4.19259 10.3001 4.08889C10.5149 3.98519 10.6964 3.83704 10.8445 3.64444L11.2001 3.2C12.1482 3.76296 12.9186 4.64074 13.5112 5.83333C14.1038 7.02593 14.4001 8.28148 14.4001 9.6C14.4001 11.3778 13.7779 12.8889 12.5334 14.1333C11.289 15.3778 9.77788 16 8.0001 16C6.22232 16 4.71121 15.3778 3.46676 14.1333C2.22232 12.8889 1.6001 11.3778 1.6001 9.6C1.6001 7.94074 2.16306 6.26296 3.28899 4.56667C4.41491 2.87037 5.98528 1.34815 8.0001 0Z" fill="#5F6368"/>
</svg>
