<svg width="16" height="16" viewBox="0 0 16 16" fill="none" xmlns="http://www.w3.org/2000/svg">
<path d="M7.25 10.5H8.75V8.75H10.5V7.25H8.75V5.5H7.25V7.25H5.5V8.75H7.25V10.5ZM2 13.5V12H3V7C3 5.79167 3.37153 4.72917 4.11458 3.8125C4.85764 2.89583 5.81944 2.32639 7 2.10417V1C7 0.722222 7.09722 0.486111 7.29167 0.291667C7.48611 0.0972222 7.72222 0 8 0C8.27778 0 8.51389 0.0972222 8.70833 0.291667C8.90278 0.486111 9 0.722222 9 1V2.10417C10.1806 2.32639 11.1424 2.89583 11.8854 3.8125C12.6285 4.72917 13 5.79167 13 7V12H14V13.5H2ZM7.99563 16C7.58188 16 7.22917 15.8531 6.9375 15.5594C6.64583 15.2656 6.5 14.9125 6.5 14.5H9.5C9.5 14.9167 9.35271 15.2708 9.05812 15.5625C8.76354 15.8542 8.40938 16 7.99563 16ZM4.5 12H11.5V7C11.5 6.02778 11.1597 5.20139 10.4792 4.52083C9.79861 3.84028 8.97222 3.5 8 3.5C7.02778 3.5 6.20139 3.84028 5.52083 4.52083C4.84028 5.20139 4.5 6.02778 4.5 7V12Z" fill="#5F6368"/>
</svg>
